<?xml version="1.0" encoding="utf-8"?>
<!-- Generator: Adobe Illustrator 24.0.1, SVG Export Plug-In . SVG Version: 6.00 Build 0)  -->
<svg version="1.1" id="Layer_1" xmlns="http://www.w3.org/2000/svg" xmlns:xlink="http://www.w3.org/1999/xlink" x="0px" y="0px"
	 viewBox="0 0 650 350" style="enable-background:new 0 0 650 350;" xml:space="preserve">
<style type="text/css">
	.st0{fill:none;stroke:#020203;stroke-width:11;stroke-miterlimit:10;}
	.st1{fill:#FFDB31;}
	.st2{opacity:0.6;fill:#F8C903;}
	.st3{opacity:0.29;fill:#FFFFFF;}
	.st4{fill:#718530;}
	.st5{fill:#7B9429;}
	.st6{opacity:0.78;fill:#5A6C26;}
	.st7{fill:#7C9A2A;}
	.st8{fill:#020203;}
	.st9{fill:none;stroke:#020203;stroke-width:6;stroke-miterlimit:10;}
</style>
<g>
	<path class="st0" d="M513.84,301.16L68.37,300.8c-14.71-0.01-26.63-11.37-26.63-25.37l0.02-213.66c0-14.01,11.94-25.37,26.66-25.37
		l512.43,0.05c14.72,0,26.65,11.36,26.65,25.37l-0.01,158.53"/>
	<g>
		<g>
			<path class="st1" d="M616.46,271.59c-4.28,12.6-12.18,23.69-21.14,33.51c-9.22,10.11-19.82,19.18-32.15,25.12
				c-12.32,5.95-26.5,8.62-39.9,5.81c-7.69-1.61-15.45-4.99-23.11-3.24c-3.2,0.73-6.51,2.34-9.59,1.21
				c-2.83-1.03-4.43-4.11-4.92-7.09c-0.5-2.98-0.16-6.03-0.53-9.03c-0.71-5.85-3.98-11.04-5.76-16.66
				c-5.06-15.88,2.13-32.9,10.17-47.5c6.48-11.79,13.71-23.32,23.18-32.88c9.47-9.56,21.38-17.09,34.62-19.5
				c9.43-1.71,19.21-0.8,28.57-2.82c11.37-2.45,19.42-3.13,29.27,4.58c5.72,4.48,15,12.94,12.54,21.25
				c-0.87,2.93-2.59,5.63-2.86,8.68c-0.56,6.18,4.42,11.13,5.34,17.02C621.27,257.06,618.67,265.07,616.46,271.59z"/>
			<path class="st2" d="M487.22,302.09c0.62,1.6,1.6,3.3,3.32,3.29c2.58-0.01,4.3-3.57,5.07-6.38c3.87-14.16,5.59-28.83,12.3-42.25
				c3.53-7.06,8.43-13.76,10.17-21.24c0.43-1.84,0.64-3.78,0.02-5.34c-0.62-1.56-2.31-2.56-3.98-1.87
				c-1.02,0.42-1.85,1.36-2.62,2.27c-5.82,6.88-11.17,14.2-15.97,21.84C484.77,269.54,480.81,285.59,487.22,302.09z"/>
			<path class="st2" d="M578.73,221.51c1.94,1.82,3.76,3.93,6.25,4.85c2.49,0.92,5.92,0.01,6.59-2.57c0.8-3.06-2.51-5.42-4.36-7.99
				c-1.75-2.44-2.27-5.72-1.36-8.58c0.25-0.78,0.61-1.57,0.51-2.39c-0.07-0.57-0.37-1.1-0.75-1.53c-1.92-2.17-5.34-1.83-8.19-1.3
				c-8.68,1.61-17.37,3.23-26.05,4.84c-2.75,0.51-17.48,2.91-10.12,6.5c4.2,2.05,14.01-1.47,19.01-0.7
				C567.09,213.71,573.67,216.75,578.73,221.51z"/>
			<path class="st2" d="M489.09,329.83c0.97,1.74,2.37,3.17,3.31-0.14c0.42-1.49,2.14-4.62,1.86-6.13
				c-0.18-0.95-5.01-5.87-4.86-6.08c-1.32,1.78-1.95,7.96-1.33,10C488.19,327.92,488.58,328.92,489.09,329.83z"/>
			<path class="st3" d="M611.69,270.75c-2.39,5.95-12.19,21.76-19.52,21.57c-6.59-0.17-1.41-12.35-0.69-16.13
				c1.19-6.28,2.1-12.92,1.44-19.32c-0.59-5.72-4.45-11.66-2.49-17.42c5.11-14.97,22.73-1.68,24.3,8.34
				C615.89,255.27,614.48,263.76,611.69,270.75z"/>
		</g>
		<path class="st4" d="M618.51,185.58c0.83-1.03,1.61-2.06,2.23-3.13c0.68-1.18-3.56-2.82-4.33-2.67c-1.99,0.39-2.67,3.03-3.72,4.57
			c-2.21,3.24-4.25,6.27-7.55,8.25c-1.67,0.82-3.57,1.15-5.4,1.63c-0.83,0.22-1.71,0.51-2.14,1.29c-0.43,0.78-0.12,2.2,0.78,2.58
			c3.64,0.13,7.16-0.58,10.27-2.08c-2.46,2.56-4.92,5.12-7.38,7.68c-0.2,0.21-0.41,0.43-0.46,0.75c-0.06,0.42,0.16,0.89,0.38,1.31
			c0.37,0.71,0.75,1.43,1.12,2.14c0.26,0.49,0.56,1.02,1.02,1.24c0.69,0.32,1.28-0.23,1.7-0.76c2.32-2.91,4.38-6.1,6.15-9.51
			c-0.51,0.99,0.99,6.16,1.32,7.47c5.35,1.26,1.33-6.9,1.02-9.35C612.92,192.14,615.92,188.83,618.51,185.58z"/>
		<path class="st5" d="M646.16,256.67c0.44,13.9-4.74,26.89-9.84,39.44c-3.57-13.57-12.89-25.12-20.95-36.9
			s-15.34-25.38-13.81-38.97c1.56-13.77,16.62-24.59,26.51-10.14C637.42,223.79,645.64,240.35,646.16,256.67z"/>
		<path class="st1" d="M598.4,205.57c0.52-1.62,1.47-3.2,3.23-3.2c-0.16,1.56-0.14,3.2,0.52,4.67c0.85,1.89,2.4,3.46,0.92,5.29
			c-0.96,1.19-2.57,1.51-3.8,0.53C597.76,211.66,597.55,208.22,598.4,205.57z"/>
		<path class="st2" d="M598.4,205.57c0.52-1.62,1.47-3.2,3.23-3.2c-0.16,1.56-0.14,3.2,0.52,4.67c0.85,1.89,2.4,3.46,0.92,5.29
			c-0.96,1.19-2.57,1.51-3.8,0.53C597.76,211.66,597.55,208.22,598.4,205.57z"/>
		<path class="st6" d="M619.24,181.43c0.24,0.12,0.44,0.26,0.54,0.43c0.58,1.02-2.32,1.41-2.87,1.38c-0.69-0.04-1.4-0.62-1.31-1.31
			c0.12-0.88,1.3-1.13,2.16-0.95C618.1,181.05,618.76,181.19,619.24,181.43z"/>
		<path class="st7" d="M628.06,210.1c9.36,13.69,17.58,30.25,18.1,46.57c0.44,13.9-4.74,26.89-9.84,39.44l-0.24,0.26
			c-0.17-14.09-1.01-28.39-5.55-41.74c-2.85-8.39-7.11-16.23-10.58-24.39c-1.81-4.25-3.41-8.61-4.45-13.11
			c-0.68-2.93-2.55-9.12-1.19-12.01C617.1,199.17,626,207.07,628.06,210.1z"/>
	</g>
	<g>
		<path class="st8" d="M247.21,244.23c0,2.77-0.98,5.13-2.94,7.09c-1.96,1.96-4.33,2.94-7.09,2.94h-1.74
			c-2.77,0-5.13-0.98-7.09-2.94c-1.96-1.96-2.94-4.32-2.94-7.08v-24.85c0-2.76,0.98-5.12,2.94-7.08c1.96-1.96,4.33-2.94,7.09-2.94
			h1.74c2.76,0,5.13,0.98,7.09,2.94c1.96,1.96,2.94,4.33,2.94,7.09v6.89h-6.56c0-0.4,0-1.05,0-1.96c0-0.91,0-1.58,0-2.03
			c0-4.61-1.49-6.91-4.48-6.91c-2.72,0-4.08,1.87-4.08,5.6v21.45c0,3.73,1.47,5.6,4.42,5.6c2.76,0,4.15-1.87,4.15-5.62v-5.82h6.56
			V244.23z"/>
		<path class="st8" d="M275.84,253.66h-6.92l-1.63-9.9h-5.11l-1.68,9.9h-6.93l7.69-43.48l7.16,0.07L275.84,253.66z M266.21,236.8
			l-1.41-10.57l-1.4,10.57H266.21z"/>
		<path class="st8" d="M297.38,215.73h-6.76v37.93h-6.96v-37.93h-6.69l-0.07-5.55h20.4L297.38,215.73z"/>
		<path class="st8" d="M323.74,247.44v6.22h-20.27v-43.41l20.27-0.07v6.22h-13.31v11.71h13.31v6.22h-13.31v13.11H323.74z"/>
		<path class="st8" d="M352.57,253.66h-6.69v-10.64c0-2.59-0.89-4.26-2.66-5.02c-1.02-0.4-3.03-0.6-6.04-0.6v16.26h-6.96v-43.62
			l11.84-0.07c2.76,0,5.13,0.98,7.09,2.95c1.96,1.97,2.94,4.33,2.94,7.1v7.5c0,1.34-0.41,2.77-1.24,4.29
			c-0.83,1.52-1.82,2.52-2.98,3.02c1.25,0.58,2.32,1.47,3.21,2.68c0.98,1.34,1.47,2.66,1.47,3.95V253.66z M345.41,225.74v-4.17
			c0-2.2-0.33-3.69-1-4.5c-0.66-0.81-2.08-1.21-4.25-1.21h-2.99v15.45l4.18,0.07C344.06,231.38,345.41,229.5,345.41,225.74z"/>
		<path class="st8" d="M367.55,253.66h-6.96v-43.48l6.96,0.07V253.66z"/>
		<path class="st8" d="M396.32,253.66h-7.09l-7.02-23.68v23.68h-6.42l-0.2-43.41h7.12l7.2,24.26v-24.26h6.42V253.66z"/>
		<path class="st8" d="M425.68,235.2v9.07c0,2.76-0.98,5.11-2.94,7.07c-1.96,1.96-4.33,2.93-7.09,2.93h-1.74
			c-2.77,0-5.13-0.98-7.09-2.94c-1.96-1.96-2.94-4.32-2.94-7.08v-24.85c0-2.76,0.98-5.12,2.94-7.08c1.96-1.96,4.32-2.94,7.09-2.94
			h1.74c2.76,0,5.13,0.98,7.09,2.94c1.96,1.96,2.94,4.33,2.94,7.09v6.89H419c0-0.27,0-0.73,0-1.4c0-0.58,0-1.04,0-1.4
			c0-2.39-0.18-4.14-0.53-5.25c-0.66-1.91-1.95-2.86-3.85-2.86c-2.7,0-4.05,1.87-4.05,5.6v21.45c0,3.73,1.45,5.6,4.35,5.6
			c1.83,0,3.03-0.68,3.61-2.05c0.31-0.79,0.47-2.27,0.47-4.44h-4.62v-6.36H425.68z"/>
	</g>
	<g>
		<path class="st8" d="M163.02,160.14l0.12,0.37c0.16,9.61-2.29,16.81-7.36,21.59c-5.07,4.78-12.31,7.18-21.71,7.18
			c-9.65,0-17.31-2.84-22.97-8.53c-5.67-5.69-8.5-13.77-8.5-24.24V129.9c0-10.43,2.74-18.52,8.22-24.27
			c5.48-5.75,12.88-8.62,22.2-8.62c9.81,0,17.35,2.38,22.61,7.14c5.26,4.76,7.8,11.97,7.64,21.62l-0.12,0.37h-16.88
			c0-5.75-1.02-9.77-3.05-12.07c-2.03-2.3-5.43-3.45-10.19-3.45c-4.35,0-7.62,1.57-9.79,4.71c-2.18,3.14-3.26,7.96-3.26,14.44v26.73
			c0,6.53,1.17,11.36,3.51,14.51c2.34,3.14,5.87,4.71,10.59,4.71c4.31,0,7.41-1.14,9.3-3.42c1.89-2.28,2.83-6.33,2.83-12.16H163.02z
			"/>
		<path class="st8" d="M193.86,187.98h-17.31V98.3h17.31V187.98z"/>
		<path class="st8" d="M262.38,111.91h-21.07v76.07h-17.43v-76.07h-20.51V98.3h59.01V111.91z"/>
		<path class="st8" d="M289.77,152.01v35.97H272.4V98.36h26.86c8.91,0,15.92,2.32,21.03,6.96c5.11,4.64,7.67,11.11,7.67,19.4
			c0,4.64-1.08,8.66-3.23,12.07c-2.16,3.41-5.27,6.12-9.33,8.13c4.68,1.56,8.05,4.15,10.1,7.76c2.05,3.61,3.08,8.13,3.08,13.55v6.53
			c0,2.51,0.29,5.13,0.86,7.88c0.57,2.75,1.6,4.76,3.08,6.04v1.29h-17.99c-1.44-1.31-2.35-3.46-2.74-6.44
			c-0.39-2.98-0.59-5.94-0.59-8.9v-6.28c0-4.56-0.94-8.09-2.83-10.59c-1.89-2.5-4.6-3.76-8.13-3.76H289.77z M289.77,138.46h9.36
			c3.74,0,6.58-1.12,8.53-3.36c1.95-2.24,2.93-5.41,2.93-9.52c0-4.19-0.97-7.51-2.89-9.98c-1.93-2.46-4.74-3.7-8.44-3.7h-9.49
			V138.46z"/>
		<path class="st8" d="M407.14,155.7c0,10.55-2.98,18.79-8.93,24.7c-5.95,5.91-13.88,8.87-23.78,8.87c-9.9,0-17.8-2.96-23.71-8.87
			c-5.91-5.91-8.87-14.15-8.87-24.7V130.7c0-10.51,2.95-18.76,8.84-24.73c5.89-5.97,13.79-8.96,23.68-8.96
			c9.9,0,17.83,2.99,23.81,8.96c5.97,5.97,8.96,14.22,8.96,24.73V155.7z M389.83,130.51c0-6.53-1.32-11.46-3.97-14.78
			c-2.65-3.33-6.48-4.99-11.49-4.99c-5.05,0-8.85,1.65-11.4,4.96c-2.55,3.31-3.82,8.24-3.82,14.81v25.19
			c0,6.65,1.28,11.64,3.85,14.97c2.57,3.33,6.38,4.99,11.43,4.99c5.05,0,8.88-1.66,11.49-4.99c2.61-3.33,3.91-8.32,3.91-14.97
			V130.51z"/>
		<path class="st8" d="M465.57,148.37h-27.41v26.05h32.83v13.55h-50.2V98.3h50.08v13.61h-32.71v22.91h27.41V148.37z"/>
		<path class="st8" d="M547.09,187.98h-17.37l-28.46-57.22l-0.37,0.06v57.16h-17.37V98.3h17.37l28.46,57.28l0.37-0.06V98.3h17.37
			V187.98z"/>
	</g>
	<path class="st9" d="M624.7,130.08"/>
	<g>
		<g>
			<path class="st8" d="M548.65,297.8c0.06-0.35,0.09-0.54,0-0.89c-0.08-0.31-0.22-0.5-0.42-0.73c-0.01-0.01-0.02-0.02-0.03-0.03
				c0,0-0.23-0.2-0.34-0.26c-0.01,0-0.01-0.01-0.02-0.01c-0.09-0.04-0.27-0.12-0.36-0.15c0,0-0.01,0-0.01,0
				c-0.02-0.01-0.03-0.01-0.05-0.01c-0.37-0.08-0.62-0.08-0.99,0c-0.02,0-0.03,0.01-0.05,0.01c-0.14,0.05-0.27,0.1-0.4,0.17
				c-0.01,0.01-0.03,0.02-0.04,0.03c-0.1,0.07-0.24,0.16-0.33,0.26c-0.21,0.22-0.35,0.45-0.43,0.74c-0.08,0.31-0.07,0.59,0,0.9
				c0.05,0.2,0.14,0.37,0.27,0.51c0.11,0.16,0.25,0.29,0.42,0.39c0.17,0.11,0.36,0.17,0.56,0.18c0.2,0.04,0.4,0.04,0.6-0.03
				c0.12-0.05,0.24-0.1,0.36-0.15c0.23-0.13,0.4-0.31,0.54-0.54c0.05-0.12,0.1-0.24,0.15-0.36c0.07-0.27,0.07-0.53,0-0.8
				c0-0.01,0-0.02-0.01-0.03c0.02,0.13,0.04,0.27,0.05,0.4c0-0.02,0-0.03,0-0.05c-0.02,0.13-0.04,0.27-0.05,0.4
				c0-0.02,0.01-0.03,0.01-0.05c-0.05,0.12-0.1,0.24-0.15,0.36c0.01-0.01,0.01-0.03,0.02-0.04c-0.08,0.1-0.16,0.2-0.23,0.3
				c0.01-0.02,0.03-0.03,0.04-0.04c-0.1,0.08-0.2,0.16-0.3,0.23c0.02-0.02,0.04-0.03,0.06-0.04c-0.12,0.05-0.24,0.1-0.36,0.15
				c0.03-0.01,0.07-0.02,0.11-0.03c-0.13,0.02-0.27,0.04-0.4,0.05c0.04-0.01,0.08-0.01,0.12,0c-0.13-0.02-0.27-0.04-0.4-0.05
				c0.03,0,0.07,0.01,0.1,0.03c-0.12-0.05-0.24-0.1-0.36-0.15c0.02,0.01,0.04,0.02,0.06,0.03c-0.1-0.08-0.2-0.16-0.3-0.23
				c0.01,0.01,0.03,0.02,0.04,0.04c-0.08-0.1-0.16-0.2-0.23-0.3c0.01,0.01,0.02,0.02,0.02,0.04c-0.05-0.12-0.1-0.24-0.15-0.36
				c0.01,0.02,0.01,0.03,0.01,0.05c-0.02-0.13-0.04-0.27-0.05-0.4c0,0.02,0,0.04,0,0.06c0.02-0.13,0.04-0.27,0.05-0.4
				c0,0,0,0.01,0,0.01c-0.06,0.2-0.07,0.4-0.03,0.6c0.01,0.2,0.07,0.39,0.18,0.56c0.09,0.17,0.22,0.32,0.39,0.42
				c0.14,0.13,0.31,0.22,0.51,0.27c0.13,0.02,0.27,0.04,0.4,0.05c0.27,0,0.52-0.07,0.76-0.2c0.1-0.08,0.2-0.16,0.3-0.23
				C548.45,298.28,548.58,298.06,548.65,297.8L548.65,297.8z"/>
		</g>
	</g>
	<g>
		<g>
			<path class="st8" d="M559.05,298.85c-0.24,0-0.49,0-0.73,0c-0.21-0.01-0.4,0.04-0.58,0.13c-0.19,0.06-0.35,0.16-0.48,0.31
				c-0.15,0.14-0.25,0.3-0.31,0.48c-0.09,0.18-0.14,0.37-0.13,0.58c0.02,0.13,0.04,0.27,0.05,0.4c0.07,0.25,0.2,0.47,0.39,0.66
				c0.1,0.08,0.2,0.16,0.3,0.23c0.23,0.14,0.49,0.2,0.76,0.2c0.24,0,0.49,0,0.73,0c0.21,0.01,0.4-0.04,0.58-0.13
				c0.19-0.06,0.35-0.16,0.48-0.31c0.15-0.14,0.25-0.3,0.31-0.48c0.09-0.18,0.14-0.37,0.13-0.58c-0.02-0.13-0.04-0.27-0.05-0.4
				c-0.07-0.25-0.2-0.47-0.39-0.66c-0.1-0.08-0.2-0.16-0.3-0.23C559.57,298.92,559.32,298.85,559.05,298.85L559.05,298.85z"/>
		</g>
	</g>
	<g>
		<g>
			<path class="st8" d="M549.86,316.13c-0.24-0.24-0.49-0.49-0.73-0.73c-0.14-0.15-0.3-0.25-0.48-0.31
				c-0.18-0.09-0.37-0.14-0.58-0.13c-0.21-0.01-0.4,0.04-0.58,0.13c-0.19,0.06-0.35,0.16-0.48,0.31c-0.08,0.1-0.16,0.2-0.23,0.3
				c-0.14,0.23-0.2,0.49-0.2,0.76c0.02,0.13,0.04,0.27,0.05,0.4c0.07,0.25,0.2,0.47,0.39,0.66c0.24,0.24,0.49,0.49,0.73,0.73
				c0.14,0.15,0.3,0.25,0.48,0.31c0.18,0.09,0.37,0.14,0.58,0.13c0.21,0.01,0.4-0.04,0.58-0.13c0.19-0.06,0.35-0.16,0.48-0.31
				c0.08-0.1,0.16-0.2,0.23-0.3c0.14-0.23,0.2-0.49,0.2-0.76c-0.02-0.13-0.04-0.27-0.05-0.4
				C550.17,316.54,550.04,316.32,549.86,316.13L549.86,316.13z"/>
		</g>
	</g>
	<g>
		<g>
			<path class="st8" d="M539.28,315.03c1.93,0,1.93-3,0-3C537.35,312.03,537.35,315.03,539.28,315.03L539.28,315.03z"/>
		</g>
	</g>
	<g>
		<g>
			<path class="st8" d="M563.44,323.08c1.93,0,1.93-3,0-3C561.51,320.08,561.5,323.08,563.44,323.08L563.44,323.08z"/>
		</g>
	</g>
	<g>
		<g>
			<path class="st8" d="M552.49,309.14c0-0.24,0-0.49,0-0.73c0.01-0.21-0.04-0.4-0.13-0.58c-0.06-0.19-0.16-0.35-0.31-0.48
				c-0.14-0.15-0.3-0.25-0.48-0.31c-0.18-0.09-0.37-0.14-0.58-0.13c-0.13,0.02-0.27,0.04-0.4,0.05c-0.25,0.07-0.47,0.2-0.66,0.39
				c-0.08,0.1-0.16,0.2-0.23,0.3c-0.14,0.23-0.2,0.49-0.2,0.76c0,0.24,0,0.49,0,0.73c-0.01,0.21,0.04,0.4,0.13,0.58
				c0.06,0.19,0.16,0.35,0.31,0.48c0.14,0.15,0.3,0.25,0.48,0.31c0.18,0.09,0.37,0.14,0.58,0.13c0.13-0.02,0.27-0.04,0.4-0.05
				c0.25-0.07,0.47-0.2,0.66-0.39c0.08-0.1,0.16-0.2,0.23-0.3C552.43,309.66,552.49,309.41,552.49,309.14L552.49,309.14z"/>
		</g>
	</g>
	<g>
		<g>
			<path class="st8" d="M563.44,313.57c1.93,0,1.93-3,0-3C561.51,310.57,561.5,313.57,563.44,313.57L563.44,313.57z"/>
		</g>
	</g>
	<g>
		<g>
			<path class="st8" d="M564.9,289.34c-0.24,0-0.49,0-0.73,0c-0.21-0.01-0.4,0.04-0.58,0.13c-0.19,0.06-0.35,0.16-0.48,0.31
				c-0.15,0.14-0.25,0.3-0.31,0.48c-0.09,0.18-0.14,0.37-0.13,0.58c0.02,0.13,0.04,0.27,0.05,0.4c0.07,0.25,0.2,0.47,0.39,0.66
				c0.1,0.08,0.2,0.16,0.3,0.23c0.23,0.14,0.49,0.2,0.76,0.2c0.24,0,0.49,0,0.73,0c0.21,0.01,0.4-0.04,0.58-0.13
				c0.19-0.06,0.35-0.16,0.48-0.31c0.15-0.14,0.25-0.3,0.31-0.48c0.09-0.18,0.14-0.37,0.13-0.58c-0.02-0.13-0.04-0.27-0.05-0.4
				c-0.07-0.25-0.2-0.47-0.39-0.66c-0.1-0.08-0.2-0.16-0.3-0.23C565.43,289.41,565.17,289.34,564.9,289.34L564.9,289.34z"/>
		</g>
	</g>
</g>
</svg>
